<?xml version="1.0" encoding="UTF-8"?>
<svg width="833px" height="223px" viewBox="0 0 833 223" version="1.1" xmlns="http://www.w3.org/2000/svg" xmlns:xlink="http://www.w3.org/1999/xlink">
    <!-- Generator: Sketch 53 (72520) - https://sketchapp.com -->
    <title>WinRed-full-red</title>
    <desc>Created with Sketch.</desc>
    <defs>
        <radialGradient cx="50%" cy="100%" fx="50%" fy="100%" r="110.310328%" gradientTransform="translate(0.500000,1.000000),scale(1.000000,0.906533),rotate(-90.000000),translate(-0.500000,-1.000000)" id="radialGradient-1">
            <stop stop-color="#D0021B" offset="0%"></stop>
            <stop stop-color="#D0021B" offset="50.6706105%"></stop>
            <stop stop-color="#003061" offset="100%"></stop>
        </radialGradient>
        <path d="M7.94914449,-7.34878092e-06 L177.924805,-7.44239533e-06 C182.314996,-7.44239533e-06 185.87395,3.55894577 185.87395,7.94913704 C185.87395,7.94913704 185.87395,7.94913714 185.87395,7.94913714 L185.873925,137.649903 C185.873924,163.650103 164.796598,184.727429 138.796398,184.727429 C138.796398,184.727429 138.796398,184.727429 138.796398,184.727429 C108.150957,184.727429 92.8644833,190.249833 92.9369761,201.294641 C92.8644833,190.249833 77.5432326,184.727429 46.9732242,184.727429 C46.9732242,184.727429 46.9732242,184.727429 46.9732242,184.727429 L46.9732242,184.727429 C21.0306261,184.727429 -5.56661423e-06,163.696799 -7.96729075e-06,137.754201 L3.46389584e-14,7.94913714 C-4.06259554e-07,3.55894586 3.55895248,-7.67811931e-06 7.94914375,-8.0843789e-06 C7.94914401,-8.08437892e-06 7.94914423,-8.08437894e-06 7.94914449,-8.08437894e-06 Z" id="path-2"></path>
    </defs>
    <g id="Branding" stroke="none" stroke-width="1" fill="none" fill-rule="evenodd">
        <g id="Artboard" transform="translate(-1707.000000, -1540.000000)">
            <g id="WinRed-full-red" transform="translate(1707.000000, 1540.000000)">
                <g id="Group-3">
                    <g id="Combined-Shape-2" fill="url(#radialGradient-1)" fill-rule="nonzero">
                        <path d="M13.248605,7.69959957e-05 L188.327078,7.62398936e-05 C195.644063,7.62398936e-05 201.575652,5.93166493 201.575652,13.2486504 L201.575625,147.906805 C201.575623,176.103372 178.717789,198.961205 150.521222,198.961205 C117.28701,198.961205 100.709213,206.760405 100.78783,222.358806 C100.709213,206.760405 84.0937017,198.961205 50.9412953,198.961205 C22.807213,198.961205 3.30329955e-05,176.154025 3.30329924e-05,148.019942 L3.08986882e-05,13.2486511 C3.08986875e-05,5.93166568 5.93161959,7.69959951e-05 13.248605,7.69959943e-05 Z M15.1608644,4.24153186 C9.30727599,4.24153186 4.56200504,8.98680281 4.56200504,14.8403912 L4.56200122,147.393222 C4.56200122,174.022042 26.1489257,195.608967 52.7777465,195.608967 C84.7087484,195.608967 100.71211,202.263852 100.78783,215.573622 C100.71211,202.263852 116.679146,195.608967 148.688939,195.608967 C175.377943,195.608967 197.013656,173.973255 197.013657,147.28425 L197.013674,14.8403908 C197.013674,8.9868024 192.268403,4.24153145 186.414814,4.24153145 L15.1608644,4.24153186 Z" id="Combined-Shape"></path>
                    </g>
                    <g id="Group-76" transform="translate(7.638655, 7.631179)">
                        <mask id="mask-3" fill="white">
                            <use xlink:href="#path-2"></use>
                        </mask>
                        <use id="Mask" fill="#D0021B" fill-rule="nonzero" xlink:href="#path-2"></use>
                        <g mask="url(#mask-3)">
                            <g transform="translate(-2.440126, 0.000000)">
                                <rect id="Rectangle" fill="#003061" fill-rule="nonzero" x="0" y="0" width="190.498309" height="93.1767534"></rect>
                                <g id="Group-50" stroke-width="1" fill="none" fill-rule="evenodd" transform="translate(21.218487, 26.285171)">
                                    <polygon id="Star" fill="#FFFFFF" fill-rule="nonzero" points="19.9858341 29.9595551 8.23845556 36.1315629 10.4820052 23.0590406 0.978176345 13.801029 14.1121448 11.8937737 19.9858341 0 25.8595234 11.8937737 38.9934918 13.801029 29.489663 23.0590406 31.7332126 36.1315629"></polygon>
                                    <polygon id="Star" fill="#FFFFFF" fill-rule="nonzero" points="73.9044199 29.9595551 62.1570413 36.1315629 64.400591 23.0590406 54.8967621 13.801029 68.0307306 11.8937737 73.9044199 0 79.7781091 11.8937737 92.9120776 13.801029 83.4082487 23.0590406 85.6517984 36.1315629"></polygon>
                                    <polygon id="Star" fill="#FFFFFF" fill-rule="nonzero" points="127.823006 29.9595551 116.075627 36.1315629 118.319177 23.0590406 108.815348 13.801029 121.949316 11.8937737 127.823006 0 133.696695 11.8937737 146.830663 13.801029 137.326834 23.0590406 139.570384 36.1315629"></polygon>
                                </g>
                                <g id="Group-51" stroke-width="1" fill="none" fill-rule="evenodd" transform="translate(1.060924, 93.302500)">
                                    <rect id="Rectangle" fill="#FFFFFF" fill-rule="nonzero" x="130.518702" y="0" width="14.3822261" height="123.672024"></rect>
                                    <rect id="Rectangle" fill="#D0021B" fill-rule="nonzero" x="145.02078" y="0" width="14.3822261" height="123.672024"></rect>
                                    <rect id="Rectangle" fill="#FFFFFF" fill-rule="nonzero" x="159.522858" y="0" width="14.3822261" height="123.672024"></rect>
                                    <rect id="Rectangle" fill="#D0021B" fill-rule="nonzero" x="174.024935" y="0" width="14.3822261" height="123.672024"></rect>
                                    <rect id="Rectangle" fill="#D0021B" fill-rule="nonzero" x="0" y="0" width="14.3822261" height="123.672024"></rect>
                                    <rect id="Rectangle" fill="#FFFFFF" fill-rule="nonzero" x="14.502078" y="0" width="14.3822261" height="123.672024"></rect>
                                    <rect id="Rectangle" fill="#D0021B" fill-rule="nonzero" x="29.0041559" y="0" width="14.3822261" height="123.672024"></rect>
                                    <rect id="Rectangle" fill="#FFFFFF" fill-rule="nonzero" x="43.5062339" y="0" width="14.3822261" height="123.672024"></rect>
                                    <rect id="Rectangle" fill="#D0021B" fill-rule="nonzero" x="58.0083118" y="0" width="14.3822261" height="123.672024"></rect>
                                    <rect id="Rectangle" fill="#FFFFFF" fill-rule="nonzero" x="72.5103898" y="0" width="14.3822261" height="123.672024"></rect>
                                    <rect id="Rectangle" fill="#D0021B" fill-rule="nonzero" x="87.0124677" y="0" width="14.3822261" height="123.672024"></rect>
                                    <rect id="Rectangle" fill="#FFFFFF" fill-rule="nonzero" x="101.514546" y="0" width="14.3822261" height="123.672024"></rect>
                                    <rect id="Rectangle" fill="#D0021B" fill-rule="nonzero" x="116.016624" y="0" width="14.3822261" height="123.672024"></rect>
                                </g>
                            </g>
                        </g>
                    </g>
                </g>
                <g id="Group-4" transform="translate(248.000000, 34.000000)" fill-rule="nonzero">
                    <g id="WinRed">
                        <path d="M69.3285233,21.1569393 L64.2930831,21.886489 L65.1688119,12.6941636 L109.830976,12.6941636 L108.444406,21.1569393 C102.46023,21.1569393 98.6897688,21.375802 97.1329099,21.813534 C95.5760511,22.251266 94.5665406,22.7741047 94.1043481,23.3820657 C93.6421557,23.9900268 93.4110629,24.7803643 93.4110629,25.753102 C93.4110629,26.7258397 93.4962023,27.5404953 93.6664838,28.1970933 C93.8367652,28.8536912 94.2138113,30.1303903 94.7976334,32.0272289 C108.858015,77.5999904 116.350285,101.991023 117.27467,105.201057 C131.189096,67.1183758 138.802995,46.1805107 140.116594,42.3868336 C143.035705,33.9240156 144.483075,28.8780144 144.458749,27.2486788 C144.434423,25.6193431 144.203331,24.4520754 143.765464,23.7468405 C143.327597,23.0416057 142.76811,22.4944489 142.086984,22.1053539 C140.91934,21.4730744 139.192225,21.1569393 136.905589,21.1569393 C134.618953,21.1569393 132.356676,21.4487563 130.118692,22.0323989 L130.921443,12.6941636 L169.307552,12.6941636 L168.285868,21.1569393 C164.393721,21.1569393 161.863863,21.5946647 160.696219,22.4701287 C158.798797,23.7833246 157.412241,25.7530889 156.536508,28.3794807 L121.726291,123.366843 C116.471893,123.707301 112.701432,124.412525 110.414795,125.482537 L109.685022,125.409582 L84.3618662,50.3389246 C69.8149665,93.7716632 62.201068,116.58202 61.5199422,118.77068 L60.3523039,122.418428 C60.2063484,122.807523 60.1090462,123.123658 60.0603944,123.366843 C54.8059958,123.707301 51.0355349,124.412525 48.7488985,125.482537 L48.0191245,125.409582 C29.0935593,74.3408522 18.2686876,45.3780214 15.5441847,38.5202206 L12.9169985,31.0788143 C11.262836,26.6042209 9.8397911,23.83196 8.64782106,22.7619485 C7.45585101,21.6919371 6.1301083,21.1569393 4.67055315,21.1569393 C3.21099799,21.1569393 1.65416251,21.4973924 0,22.1783088 L0.948706108,12.6941636 L42.7647522,12.6941636 L41.6700913,21.1569393 C36.6103001,21.1569393 33.4236525,21.351484 32.1100529,21.740579 C29.7261128,22.4214954 28.5341606,23.8076259 28.5341606,25.8990119 C28.5341606,27.3094816 28.9233695,29.1819736 29.7017989,31.5165441 L55.0249542,104.179688 L79.0345165,33.8511029 C76.3100135,25.3882849 73.0747148,21.1569393 69.3285233,21.1569393 Z M195.322533,21.740579 C193.960281,22.2755848 192.476422,22.5430836 190.870912,22.5430836 C189.265401,22.5430836 187.757217,22.2634257 186.346313,21.7041016 C184.93541,21.1447774 183.719132,20.3787579 182.697444,19.4060202 C180.459459,17.363271 179.340483,15.1381669 179.340483,12.7306411 C179.340483,10.3231153 179.63239,8.41414615 180.216212,7.00367647 C180.800034,5.5932068 181.627103,4.3773029 182.697444,3.35592831 C184.935428,1.16726847 187.684216,0.0729549632 190.943889,0.0729549632 C194.106258,0.0729549632 196.757744,1.16726847 198.898425,3.35592831 C200.990454,5.54458815 202.036453,8.29253095 202.036453,11.5998392 C202.036453,16.5121646 199.798502,19.8923774 195.322533,21.740579 Z M200.868814,36.0397518 C198.679482,42.3625469 197.584832,54.8134028 197.584832,73.392693 L198.095673,107.389706 C198.095673,110.356556 198.557859,112.630296 199.482244,114.210995 C200.406629,115.791694 202.255371,116.582031 205.028526,116.582031 C207.26651,116.582031 209.261206,116.290214 211.012672,115.706572 L209.990989,124.315257 L170.802129,124.315257 L172.115722,116.582031 C176.883602,116.582031 180.118901,115.268855 181.821715,112.642463 C183.232618,110.405167 183.938059,106.684501 183.938059,101.480354 L183.938059,63.3249081 C183.938059,57.2452974 182.867735,53.3057688 180.727054,51.506204 C179.02424,50.0470975 175.278104,49.3175551 169.488535,49.3175551 L170.656174,40.1252298 L200.868814,36.0397518 Z M215.251199,116.582031 C219.289302,116.582031 221.989438,115.560672 223.35169,113.517923 C224.908548,111.183352 225.686966,106.368373 225.686966,99.0728401 L225.686966,63.8355928 C225.686966,57.9991666 224.981525,54.1325922 223.570622,52.2357537 C222.159718,50.2902783 218.900094,49.3175551 213.791651,49.3175551 L214.959289,40.1252298 L241.085196,36.1856618 C240.550026,40.1252495 240.282445,44.3079589 240.282445,48.7339154 C246.50988,43.6270425 253.029129,39.9306946 259.840386,37.644761 C262.759496,36.6233864 265.775865,36.1127068 268.889583,36.1127068 C272.0033,36.1127068 275.031832,36.5747503 277.975268,37.4988511 C280.918704,38.4229519 283.48505,39.9306728 285.674383,42.0220588 C290.490915,46.5452892 292.899145,53.2813967 292.899145,62.2305836 C292.899145,67.6779148 292.728866,73.0035739 292.388303,78.2077206 C291.463918,93.8201608 291.184174,103.328529 291.549063,106.733111 C291.913952,110.137693 292.339649,112.399274 292.826168,113.517923 C293.750553,115.560672 295.40469,116.582031 297.78863,116.582031 C300.075267,116.582031 302.142939,116.290214 303.991709,115.706572 L302.897048,124.315257 L265.532623,124.315257 L266.846216,116.582031 C270.884318,116.582031 273.657432,115.70658 275.165639,113.955653 C275.798112,113.226099 276.272461,112.216899 276.588698,110.928022 C276.904935,109.639144 277.172516,107.997674 277.391449,106.003562 C277.610382,104.009449 277.792824,101.60196 277.938779,98.7810202 C278.230691,93.0418678 278.376644,86.5367819 278.376644,79.2655676 C278.376644,71.9943532 278.242853,66.6930122 277.975268,63.3613856 C277.707683,60.0297589 277.063056,57.3426113 276.041367,55.2998621 C274.095294,51.3116375 269.813996,49.3175551 263.197346,49.3175551 C257.067214,49.3175551 250.596617,51.4089098 243.78536,55.591682 L240.282445,57.7073759 L240.282445,106.733111 C240.282445,111.110431 240.623003,113.761101 241.304128,114.685202 C241.985254,115.609303 242.763672,116.15646 243.639405,116.326689 C244.515138,116.496918 245.48816,116.582031 246.558501,116.582031 C249.039744,116.582031 251.350672,116.314532 253.491353,115.779527 L252.250737,124.315257 L214.083561,124.315257 L215.251199,116.582031 Z" id="Win" fill="#003061"></path>
                        <path d="M340.121356,112.788373 C340.899786,114.101569 341.824157,115.013497 342.894497,115.524184 C343.964838,116.034872 345.533836,116.290211 347.601539,116.290211 C349.669242,116.290211 352.259914,115.901122 355.373632,115.122932 L354.57088,124.315257 L311.514218,124.315257 L312.389947,116.290211 C317.401086,116.192938 320.587734,114.879761 321.949986,112.350643 C323.11763,110.307894 323.701443,105.784732 323.701443,98.7810202 L323.628466,33.0485983 C323.628466,28.2821836 323.409536,25.3396962 322.971669,24.2210478 C322.095936,22.1782986 320.101241,21.1569393 316.987523,21.1569393 C314.506279,21.1569393 311.976421,21.4487563 309.397874,22.0323989 L310.565512,12.6941636 L331.583001,12.6941636 L361.211823,11.5998392 C379.1157,11.5998392 390.451408,17.168679 395.219288,28.3065257 C396.678843,31.8083815 397.40861,35.7600691 397.40861,40.1617073 C397.40861,44.5633454 396.605867,48.5879873 395.000356,52.2357537 C393.394845,55.8835201 391.327173,59.0935064 388.797277,61.8658088 C383.737486,67.4104138 377.850702,70.9851712 371.136748,72.5901884 C376.001932,75.0706696 381.256252,81.0772348 386.899865,90.6100643 L395.292265,104.909237 C399.622279,112.058859 403.003531,115.633617 405.436123,115.633617 C407.333545,115.73089 409.401217,115.414755 411.639201,114.685202 L411.274314,124.315257 L400.181751,124.315257 C392.835323,124.315257 386.899888,121.810495 382.375267,116.800896 C380.137282,113.979957 378.166912,110.332245 376.464098,105.857652 L372.450341,95.6439568 C370.650223,91.1693634 368.509575,87.2906299 366.028331,84.0076402 C363.547087,80.7246504 361.455089,78.5238644 359.752275,77.405216 C356.638557,75.4111037 351.773447,74.4140625 345.156797,74.4140625 L339.026696,74.4140625 L339.026696,103.887868 C339.026696,108.508372 339.391579,111.475177 340.121356,112.788373 Z M366.32024,21.5946691 C363.206523,20.5732945 360.43341,20.0626149 358.000818,20.0626149 L348.951621,20.0626149 C345.302733,20.0626149 341.994458,20.4517041 339.026696,21.2298943 L339.026696,65.6594669 L356.614247,65.6594669 C363.230897,65.5621931 368.752798,63.5194746 373.180115,59.53125 C377.899344,55.2025672 380.258923,49.512137 380.258923,42.4597886 C380.258923,31.4678525 375.612742,24.5128822 366.32024,21.5946691 Z M456.453159,112.934283 C466.086223,112.302004 474.575841,109.991786 481.922269,106.003562 L485.133274,112.131778 C477.786847,118.211389 469.418856,122.36978 460.029051,124.607077 C457.207245,125.239357 454.628736,125.555492 452.293447,125.555492 C433.951704,125.555492 422.397066,117.457572 417.629186,101.261489 C416.072327,96.0573422 415.293909,89.9899818 415.293909,83.0592256 C415.293909,76.1284695 416.425048,69.744974 418.687358,63.9085478 C420.949669,58.0721216 423.941712,53.0990746 427.663577,48.9892578 C431.385443,44.879441 435.654578,41.7059318 440.47111,39.4686351 C445.287642,37.2313384 450.274381,36.1127068 455.431475,36.1127068 C476.108507,36.1127068 486.446867,47.9312927 486.446867,71.5688189 L486.446867,72.2983686 C486.446867,78.475253 485.717101,81.5636489 484.257546,81.5636489 L430.546184,81.5636489 C430.546184,91.7287579 432.796298,99.4619067 437.296593,104.763327 C441.796888,110.064748 448.182346,112.788372 456.453159,112.934283 Z M469.808022,72.2254136 C469.856674,71.204039 469.880999,70.4258605 469.880999,69.8908548 L469.880999,67.483341 C469.880999,56.0536729 466.718677,49.0257484 460.393938,46.3993566 C458.107302,45.4266189 455.662583,44.9402574 453.05971,44.9402574 C450.456837,44.9402574 448.255374,45.3293466 446.455256,46.1075368 C444.655138,46.8857269 442.964512,47.9557224 441.383327,49.3175551 C439.802143,50.6793879 438.354772,52.272222 437.041172,54.0961052 C435.727573,55.9199884 434.584272,57.9262299 433.611235,60.1148897 C431.567858,64.63812 430.546184,69.2585548 430.546184,73.9763327 L469.808022,72.2254136 Z M528.195774,37.9365809 C531.893314,36.7206587 536.186774,36.1127068 541.076284,36.1127068 C545.965794,36.1127068 550.94037,36.793613 556.000161,38.1554458 L556.000161,36.6963465 C556.000161,25.2180416 555.805557,18.8831823 555.416342,17.6915786 C555.027127,16.4999749 554.552779,15.6366831 553.993283,15.1016774 C553.433787,14.5666717 552.70402,14.1046282 551.803961,13.7155331 C550.903902,13.326438 549.918717,13.0346211 548.848376,12.8400735 C547.486125,12.645526 545.126546,12.5482537 541.769569,12.5482537 L540.382999,12.5482537 L541.47766,4.23138787 L571.836255,0 C571.836255,0.437731968 571.799767,0.802503136 571.726789,1.09432445 C571.653811,1.38614576 571.544346,2.0548929 571.398391,3.10058594 C571.252435,4.14627897 571.106482,5.9336577 570.960527,8.46277574 C570.571312,15.2233028 570.376707,24.3182639 570.376707,35.747932 L570.376707,102.282858 C570.376707,106.076536 570.802405,108.751524 571.653812,110.307904 C572.505219,111.864285 573.709334,112.642463 575.266193,112.642463 C577.30957,112.642463 579.644823,112.18042 582.272022,111.256319 L584.388367,110.599724 C584.291063,111.183367 584.205924,111.998022 584.132946,113.043716 C584.059968,114.089409 583.974829,115.171563 583.877525,116.290211 C583.780221,117.40886 583.707245,118.624764 583.658593,119.93796 L560.743692,125.628447 C560.208521,125.385262 559.466592,123.90186 558.517881,121.178194 C557.56917,118.454528 556.924543,116.460446 556.58398,115.195887 C550.405197,119.573207 543.837297,122.661603 536.880084,124.461167 C534.447492,125.093447 531.5041,125.409582 528.04982,125.409582 C524.595539,125.409582 520.825078,124.534131 516.738324,122.783203 C512.651569,121.032275 509.124364,118.430241 506.156602,114.977022 C499.685907,107.632852 496.450608,97.4922139 496.450608,84.5548024 C496.450608,76.0919843 498.396653,68.0670186 502.2888,60.4796645 C508.12702,49.0499965 516.762592,41.5357104 528.195774,37.9365809 Z M533.450147,112.058824 C536.17465,111.96155 538.801809,111.645415 541.331705,111.110409 C543.861601,110.575403 546.148203,109.967451 548.19158,109.286535 C552.521594,107.876065 555.173079,106.684479 556.146116,105.711742 L556.000161,105.784697 L556.000161,52.7464384 C553.85948,49.536404 549.748461,47.2748227 543.666982,45.9616268 C541.915515,45.5725318 539.628913,45.3779871 536.807107,45.3779871 C533.9853,45.3779871 530.932443,46.0224162 527.648444,47.3112937 C524.364445,48.6001711 521.554843,50.7036849 519.219555,53.621898 C514.354371,59.7015086 511.921816,69.2341952 511.921816,82.2202436 C511.921816,90.9748829 514.135441,98.2459882 518.562758,104.033778 C522.795468,109.529746 527.757881,112.204734 533.450147,112.058824 Z" id="Red" fill="#D0021B"></path>
                    </g>
                </g>
            </g>
        </g>
    </g>
</svg>